<?xml version="1.0" encoding="UTF-8" standalone="no"?>
<svg
   width="80"
   height="91"
   viewBox="0 0 109 70"
   fill="none"
   version="1.1"
   id="svg2"
   sodipodi:docname="avatar.svg"
   inkscape:version="1.3.2 (091e20ef0f, 2023-11-25, custom)"
   xmlns:inkscape="http://www.inkscape.org/namespaces/inkscape"
   xmlns:sodipodi="http://sodipodi.sourceforge.net/DTD/sodipodi-0.dtd"
   xmlns="http://www.w3.org/2000/svg"
   xmlns:svg="http://www.w3.org/2000/svg">
  <defs
     id="defs2" />
  <sodipodi:namedview
     id="namedview2"
     pagecolor="#ffffff"
     bordercolor="#000000"
     borderopacity="0.25"
     inkscape:showpageshadow="2"
     inkscape:pageopacity="0.0"
     inkscape:pagecheckerboard="0"
     inkscape:deskcolor="#d1d1d1"
     inkscape:zoom="3.4835165"
     inkscape:cx="39.902208"
     inkscape:cy="80.235016"
     inkscape:window-width="1920"
     inkscape:window-height="1013"
     inkscape:window-x="0"
     inkscape:window-y="0"
     inkscape:window-maximized="1"
     inkscape:current-layer="svg2" />
  <path
     d="m 54.5,9.5063477 c -5.879227,0 -11.757214,2.2516473 -16.262183,6.7566163 L 16.262183,38.235937 c -9.0099374,9.009937 -9.0099374,23.51709 0,32.527027 L 28.07229,82.573071 A 29.2246,29.2246 0 0 1 54.790063,65.060156 11.058,11.058 0 0 1 43.733057,54.000488 11.058,11.058 0 0 1 54.790063,42.943481 11.058,11.058 0 0 1 65.849731,54.000488 11.058,11.058 0 0 1 54.790063,65.060156 29.2246,29.2246 0 0 1 81.356152,82.141968 L 92.737817,70.762964 c 9.009933,-9.009937 9.009933,-23.51709 0,-32.527027 L 70.762183,16.262964 C 66.257214,11.757995 60.379227,9.5063477 54.5,9.5063477 Z"
     style="fill:#00bfff"
     id="path4" />
</svg>
